<svg width="320" height="199" viewBox="0 0 320 199" fill="none" xmlns="http://www.w3.org/2000/svg">
<path d="M66.0664 139.253L63.8194 141.241L63.8404 141.264L63.862 141.288L66.0664 139.253ZM87.9714 139.253L85.767 137.218L85.7454 137.241L85.7244 137.265L87.9714 139.253ZM87.3987 120.498L85.4533 122.781L85.4985 122.82L85.5452 122.857L87.3987 120.498ZM66.6391 120.498L68.5341 122.823L68.5433 122.816L66.6391 120.498ZM68.6434 97.7336L70.4616 95.3473L70.4616 95.3473L68.6434 97.7336ZM85.5375 82.2712L83.7194 84.6575L83.7194 84.6575L85.5375 82.2712ZM68.6434 82.2712L70.4616 84.6575L70.4616 84.6575L68.6434 82.2712ZM59.3374 160.299L60.3498 157.475L59.3374 160.299ZM46.7384 153.14L44.7172 155.357L44.7331 155.372L44.7493 155.386L46.7384 153.14ZM39.4368 143.118L36.6758 144.292L36.6812 144.305L36.6867 144.317L39.4368 143.118ZM38.1482 122.932L35.3022 121.983L35.2911 122.016L35.2809 122.049L38.1482 122.932ZM41.4411 116.346L43.8563 118.125L43.8779 118.096L43.8988 118.066L41.4411 116.346ZM46.0226 111.621L47.779 114.053H47.779L46.0226 111.621ZM51.3199 108.615L52.484 111.379L54.3199 110.606V108.615H51.3199ZM51.3199 107.183H54.3199V105.329L52.6615 104.5L51.3199 107.183ZM43.4455 99.8811L45.9096 98.1699H45.9096L43.4455 99.8811ZM42.0138 77.4034L39.2994 76.1261L39.2838 76.1591L39.2691 76.1925L42.0138 77.4034ZM48.7428 68.6701L46.8082 66.3772L46.7902 66.3924L46.7725 66.4078L48.7428 68.6701ZM60.3396 62.3706L61.3229 65.2049H61.3229L60.3396 62.3706ZM93.6982 62.3706L92.7149 65.2049L92.7237 65.2079L92.7325 65.2109L93.6982 62.3706ZM105.295 68.6701L103.325 70.9323L103.342 70.9478L103.36 70.9629L105.295 68.6701ZM112.024 77.4034L109.279 78.6144L109.294 78.6478L109.309 78.6808L112.024 77.4034ZM110.735 99.8811L108.271 98.1699L108.271 98.1699L110.735 99.8811ZM102.861 107.183L101.519 104.5L99.8611 105.329V107.183H102.861ZM102.861 108.615H99.8611V110.606L101.697 111.379L102.861 108.615ZM108.158 111.621L106.402 114.053H106.402L108.158 111.621ZM112.74 116.346L110.282 118.066L110.303 118.096L110.325 118.125L112.74 116.346ZM115.89 122.932L113.013 123.784L113.032 123.849L113.055 123.913L115.89 122.932ZM114.744 143.118L117.494 144.317L117.5 144.305L117.505 144.292L114.744 143.118ZM107.299 153.14L105.31 150.895L105.294 150.909L105.278 150.924L107.299 153.14ZM94.8435 160.299L93.8312 157.475L94.8435 160.299ZM59.7735 130.09C59.7735 134.374 61.0915 138.157 63.8194 141.241L68.3134 137.265C66.6507 135.386 65.7735 133.06 65.7735 130.09H59.7735ZM63.862 141.288C66.9525 144.636 71.6119 145.975 77.0905 145.975V139.975C72.4517 139.975 69.7617 138.833 68.2708 137.218L63.862 141.288ZM77.0905 145.975C82.5556 145.975 87.2101 144.641 90.2184 141.241L85.7244 137.265C84.3421 138.828 81.7426 139.975 77.0905 139.975V145.975ZM90.1758 141.288C93.0179 138.209 94.4075 134.41 94.4075 130.09H88.4075C88.4075 133.024 87.5063 135.334 85.767 137.218L90.1758 141.288ZM94.4075 130.09C94.4075 125.14 92.8347 120.954 89.2522 118.139L85.5452 122.857C87.3077 124.241 88.4075 126.449 88.4075 130.09H94.4075ZM89.3441 118.214C86.0913 115.443 81.9018 114.205 77.0905 114.205V120.205C80.8693 120.205 83.552 121.162 85.4533 122.781L89.3441 118.214ZM77.0905 114.205C72.2737 114.205 68.0639 115.445 64.7348 118.179L68.5433 122.816C70.5592 121.16 73.317 120.205 77.0905 120.205V114.205ZM64.744 118.172C61.2735 121 59.7735 125.178 59.7735 130.09H65.7735C65.7735 126.412 66.8505 124.195 68.5341 122.823L64.744 118.172ZM62.6369 90.0024C62.6369 94.1334 63.7891 97.8065 66.8253 100.12L70.4616 95.3473C69.489 94.6063 68.6369 93.1254 68.6369 90.0024H62.6369ZM66.8253 100.12C69.5376 102.186 73.0858 103.024 77.0905 103.024V97.0243C73.8411 97.0243 71.758 96.335 70.4616 95.3473L66.8253 100.12ZM77.0905 103.024C81.0951 103.024 84.6433 102.186 87.3556 100.12L83.7194 95.3473C82.4229 96.335 80.3398 97.0243 77.0905 97.0243V103.024ZM87.3556 100.12C90.3919 97.8065 91.5441 94.1334 91.5441 90.0024H85.5441C85.5441 93.1254 84.6919 94.6063 83.7194 95.3473L87.3556 100.12ZM91.5441 90.0024C91.5441 85.8714 90.3919 82.1982 87.3556 79.8849L83.7194 84.6575C84.6919 85.3985 85.5441 86.8794 85.5441 90.0024H91.5441ZM87.3556 79.8849C84.6433 77.8184 81.0951 76.9805 77.0905 76.9805V82.9805C80.3398 82.9805 82.4229 83.6698 83.7194 84.6575L87.3556 79.8849ZM77.0905 76.9805C73.0858 76.9805 69.5376 77.8184 66.8253 79.8849L70.4616 84.6575C71.758 83.6698 73.8411 82.9805 77.0905 82.9805V76.9805ZM66.8253 79.8849C63.7891 82.1982 62.6369 85.8714 62.6369 90.0024H68.6369C68.6369 86.8794 69.489 85.3985 70.4616 84.6575L66.8253 79.8849ZM77.0905 160.019C70.5727 160.019 65.0114 159.146 60.3498 157.475L58.325 163.123C63.7808 165.079 70.0548 166.019 77.0905 166.019V160.019ZM60.3498 157.475C55.5789 155.765 51.7305 153.554 48.7275 150.895L44.7493 155.386C48.4277 158.644 52.9785 161.206 58.325 163.123L60.3498 157.475ZM48.7597 150.924C45.8006 148.226 43.6274 145.225 42.1868 141.92L36.6867 144.317C38.4913 148.457 41.1859 152.138 44.7172 155.357L48.7597 150.924ZM42.1977 141.945C40.7233 138.476 40.0029 135.008 40.0029 131.522H34.0029C34.0029 135.862 34.9051 140.126 36.6758 144.292L42.1977 141.945ZM40.0029 131.522C40.0029 128.504 40.3587 125.949 41.0156 123.814L35.2809 122.049C34.4106 124.878 34.0029 128.049 34.0029 131.522H40.0029ZM40.9943 123.88C41.7738 121.542 42.74 119.64 43.8563 118.125L39.026 114.566C37.4697 116.678 36.2407 119.167 35.3022 121.983L40.9943 123.88ZM43.8988 118.066C45.0618 116.405 46.3586 115.079 47.779 114.053L44.2661 109.189C42.2505 110.645 40.493 112.469 38.9834 114.625L43.8988 118.066ZM47.779 114.053C49.3269 112.935 50.8953 112.048 52.484 111.379L50.1557 105.85C48.1174 106.708 46.1543 107.825 44.2661 109.189L47.779 114.053ZM54.3199 108.615V107.183H48.3199V108.615H54.3199ZM52.6615 104.5C50.3648 103.351 48.0943 101.316 45.9096 98.1699L40.9814 101.592C43.5691 105.319 46.5481 108.151 49.9782 109.866L52.6615 104.5ZM45.9096 98.1699C43.9399 95.3335 42.8663 91.7161 42.8663 87.139H36.8663C36.8663 92.6792 38.1788 97.5566 40.9814 101.592L45.9096 98.1699ZM42.8663 87.139C42.8663 84.3482 43.4794 81.5138 44.7586 78.6144L39.2691 76.1925C37.6848 79.7834 36.8663 83.4394 36.8663 87.139H42.8663ZM44.7283 78.6808C46.0623 75.8461 48.0382 73.2621 50.7131 70.9323L46.7725 66.4078C43.5297 69.2321 41.0197 72.4704 39.2994 76.1261L44.7283 78.6808ZM50.6774 70.9629C53.3923 68.6723 56.9135 66.7346 61.3229 65.2049L59.3563 59.5363C54.4118 61.2517 50.2019 63.5137 46.8082 66.3772L50.6774 70.9629ZM61.3229 65.2049C65.6025 63.7201 70.8366 62.9367 77.0905 62.9367V56.9367C70.3636 56.9367 64.4304 57.7759 59.3563 59.5363L61.3229 65.2049ZM77.0905 62.9367C83.2432 62.9367 88.4312 63.7187 92.7149 65.2049L94.6815 59.5363C89.6114 57.7773 83.7275 56.9367 77.0905 56.9367V62.9367ZM92.7325 65.2109C97.2361 66.7421 100.731 68.673 103.325 70.9323L107.265 66.4078C103.942 63.513 99.7049 61.2442 94.6639 59.5303L92.7325 65.2109ZM103.36 70.9629C106.11 73.2832 108.054 75.8369 109.279 78.6144L114.769 76.1925C113.131 72.4796 110.588 69.211 107.23 66.3772L103.36 70.9629ZM109.309 78.6808C110.669 81.5689 111.315 84.3801 111.315 87.139H117.315C117.315 83.4076 116.434 79.7284 114.738 76.126L109.309 78.6808ZM111.315 87.139C111.315 91.7161 110.241 95.3335 108.271 98.1699L113.2 101.592C116.002 97.5566 117.315 92.6792 117.315 87.139H111.315ZM108.271 98.1699C106.087 101.316 103.816 103.351 101.519 104.5L104.203 109.866C107.633 108.151 110.612 105.319 113.2 101.592L108.271 98.1699ZM99.8611 107.183V108.615H105.861V107.183H99.8611ZM101.697 111.379C103.286 112.048 104.854 112.935 106.402 114.053L109.915 109.189C108.027 107.825 106.064 106.708 104.025 105.85L101.697 111.379ZM106.402 114.053C107.822 115.079 109.119 116.405 110.282 118.066L115.197 114.625C113.688 112.469 111.93 110.645 109.915 109.189L106.402 114.053ZM110.325 118.125C111.419 119.61 112.33 121.477 113.013 123.784L118.766 122.079C117.922 119.231 116.733 116.708 115.155 114.566L110.325 118.125ZM113.055 123.913C113.782 126.014 114.178 128.535 114.178 131.522H120.178C120.178 128.018 119.715 124.812 118.724 121.95L113.055 123.913ZM114.178 131.522C114.178 135.008 113.458 138.476 111.983 141.945L117.505 144.292C119.276 140.126 120.178 135.862 120.178 131.522H114.178ZM111.994 141.92C110.563 145.204 108.357 148.196 105.31 150.895L109.288 155.386C112.923 152.167 115.681 148.478 117.494 144.317L111.994 141.92ZM105.278 150.924C102.383 153.563 98.5979 155.766 93.8312 157.475L95.8559 163.123C101.207 161.205 105.725 158.636 109.321 155.357L105.278 150.924ZM93.8312 157.475C89.1696 159.146 83.6083 160.019 77.0905 160.019V166.019C84.1261 166.019 90.4002 165.079 95.8559 163.123L93.8312 157.475Z" fill="#ED274B" fill-opacity="0.5"/>
<path d="M29.9897 101.804C29.9897 105.396 31.0769 108.421 33.2511 110.879C35.5199 113.337 39.1594 114.566 44.1696 114.566C49.1799 114.566 52.7721 113.337 54.9464 110.879C57.2152 108.421 58.3495 105.396 58.3495 101.804C58.3495 97.5502 57.0261 94.3834 54.3792 92.3037C51.8268 90.1294 48.4236 89.0423 44.1696 89.0423C39.9157 89.0423 36.4652 90.1294 33.8183 92.3037C31.2659 94.3834 29.9897 97.5502 29.9897 101.804ZM32.8257 62.1004C32.8257 65.6927 33.8183 68.2451 35.8035 69.7576C37.7887 71.2701 40.5774 72.0264 44.1696 72.0264C47.7619 72.0264 50.5506 71.2701 52.5358 69.7576C54.521 68.2451 55.5136 65.6927 55.5136 62.1004C55.5136 58.5082 54.521 55.9558 52.5358 54.4433C50.5506 52.9308 47.7619 52.1745 44.1696 52.1745C40.5774 52.1745 37.7887 52.9308 35.8035 54.4433C33.8183 55.9558 32.8257 58.5082 32.8257 62.1004ZM44.1696 134.418C37.4578 134.418 31.5968 133.52 26.5865 131.724C21.5763 129.928 17.4169 127.564 14.1082 124.634C10.8941 121.703 8.48353 118.395 6.87647 114.708C5.26942 110.927 4.46589 107.098 4.46589 103.222C4.46589 100.008 4.84402 97.1721 5.60028 94.7142C6.45107 92.1619 7.5382 89.9876 8.86166 88.1915C10.1851 86.3008 11.6976 84.741 13.3992 83.5121C15.1008 82.2832 16.8497 81.2906 18.6458 80.5343V79.1163C15.8098 77.6983 13.2102 75.2878 10.8468 71.8846C8.48353 68.4814 7.30187 64.2747 7.30187 59.2645C7.30187 56.0503 8.01087 52.8362 9.42886 49.6221C10.9414 46.408 13.1629 43.5248 16.0934 40.9724C19.1185 38.42 22.947 36.3403 27.5791 34.7332C32.2112 33.1262 37.7414 32.3226 44.1696 32.3226C50.5033 32.3226 55.9862 33.1262 60.6183 34.7332C65.345 36.3403 69.1735 38.42 72.1041 40.9724C75.1291 43.5248 77.3506 46.408 78.7686 49.6221C80.2811 52.8362 81.0374 56.0503 81.0374 59.2645C81.0374 64.2747 79.8557 68.4814 77.4924 71.8846C75.1291 75.2878 72.5295 77.6983 69.6935 79.1163V80.5343C71.4896 81.2906 73.2385 82.2832 74.94 83.5121C76.6416 84.741 78.1542 86.3008 79.4776 88.1915C80.8011 89.9876 81.8409 92.1619 82.5972 94.7142C83.448 97.1721 83.8734 100.008 83.8734 103.222C83.8734 107.098 83.0699 110.927 81.4628 114.708C79.8557 118.395 77.3979 121.703 74.0893 124.634C70.8751 127.564 66.763 129.928 61.7527 131.724C56.7425 133.52 50.8815 134.418 44.1696 134.418Z" fill="white"/>
<path d="M120.209 39.3651L120.741 39.8969L126.59 61.6985H127.122L131.908 39.8969L132.44 39.3651H139.884L140.416 39.8969V46.8096L131.908 76.0557L131.376 76.5874H122.336L121.805 76.0557L115.956 54.254H115.424L109.575 76.0557L109.043 76.5874H100.003L99.4714 76.0557L90.9634 46.8096V39.8969L91.4952 39.3651H98.9396L99.4714 39.8969L104.257 61.6985H104.789L110.638 39.8969L111.17 39.3651H120.209ZM173.903 76.5874H146.784L146.253 76.0557V39.8969L146.784 39.3651H173.903L174.435 39.8969V46.8096L173.903 47.3413H156.356L155.824 47.8731V53.1905L156.356 53.7223H172.84L173.372 54.254V61.1667L172.84 61.6985H156.356L155.824 62.2302V68.0795L156.356 68.6112H173.903L174.435 69.1429V76.0557L173.903 76.5874ZM208.488 76.5874H181.369L180.837 76.0557V39.8969L181.369 39.3651H208.488L209.019 39.8969V46.8096L208.488 47.3413H190.94L190.408 47.8731V53.1905L190.94 53.7223H207.424L207.956 54.254V61.1667L207.424 61.6985H190.94L190.408 62.2302V68.0795L190.94 68.6112H208.488L209.019 69.1429V76.0557L208.488 76.5874ZM245.199 76.5874H240.945L239.882 76.0557L228.183 64.3572H227.651L224.993 67.016V76.0557L224.461 76.5874H215.953L215.421 76.0557V39.8969L215.953 39.3651H224.461L224.993 39.8969V54.254H225.524L239.882 39.8969L240.945 39.3651H244.667L245.199 39.8969V46.8096L234.564 57.4445V57.9763L245.731 69.1429V76.0557L245.199 76.5874ZM271.275 65.9525C271.275 65.2789 271.134 64.7472 270.85 64.3572C270.602 63.9318 270.23 63.5951 269.733 63.3469C269.237 63.0633 268.617 62.8506 267.872 62.7088C267.163 62.5316 266.348 62.372 265.426 62.2302L261.704 61.6985C258.903 61.3085 256.635 60.7059 254.898 59.8906C253.161 59.0398 251.813 58.0649 250.856 56.966C249.899 55.867 249.243 54.6794 248.889 53.4032C248.57 52.1271 248.41 50.8154 248.41 49.4683C248.41 48.0149 248.712 46.6501 249.314 45.3739C249.917 44.0622 250.856 42.9278 252.132 41.9707C253.409 41.0136 255.004 40.2514 256.918 39.6842C258.868 39.117 261.172 38.8334 263.831 38.8334C268.617 38.8334 272.374 39.7728 275.104 41.6516C277.869 43.495 279.252 46.2778 279.252 50.0001L278.72 50.5318H270.212L269.68 50.0001C269.68 48.9366 269.237 48.0503 268.351 47.3413C267.465 46.6323 265.958 46.2778 263.831 46.2778C259.577 46.2778 257.45 47.3413 257.45 49.4683C257.45 50.5318 257.946 51.2585 258.939 51.6485C259.967 52.0384 261.42 52.3752 263.299 52.6588L267.021 53.1905C269.822 53.5805 272.091 54.1654 273.828 54.9453C275.565 55.7252 276.912 56.6469 277.869 57.7104C278.826 58.7739 279.464 59.9615 279.783 61.2731C280.138 62.5847 280.315 63.9673 280.315 65.4207C280.315 66.8742 280.031 68.3099 279.464 69.7279C278.897 71.1104 277.975 72.3512 276.699 73.4501C275.458 74.549 273.81 75.4353 271.754 76.1088C269.733 76.7824 267.27 77.1191 264.363 77.1191C259.01 77.1191 254.915 76.0911 252.079 74.035C249.279 71.9435 247.879 68.8948 247.879 64.889L248.41 64.3572H256.918L257.45 64.889C257.45 66.4842 257.999 67.6895 259.098 68.5049C260.197 69.2847 261.952 69.6747 264.363 69.6747C266.49 69.6747 268.174 69.3911 269.414 68.8239C270.655 68.2567 271.275 67.2996 271.275 65.9525Z" fill="white"/>
<path d="M156.959 126.069V129.069H158.202L159.08 128.191L156.959 126.069ZM148.451 126.069L146.33 128.191L147.208 129.069H148.451V126.069ZM147.919 125.538H144.919V126.78L145.798 127.659L147.919 125.538ZM147.919 111.712H150.919V110.47L150.041 109.591L147.919 111.712ZM147.388 111.18L149.509 109.059L148.63 108.18H147.388V111.18ZM135.157 111.18V108.18H133.915L133.036 109.059L135.157 111.18ZM134.626 111.712L132.504 109.591L131.626 110.47V111.712H134.626ZM134.626 125.538L136.747 127.659L137.626 126.78V125.538H134.626ZM134.094 126.069V129.069H135.337L136.215 128.191L134.094 126.069ZM125.586 126.069L123.465 128.191L124.343 129.069H125.586V126.069ZM125.054 125.538H122.054V126.78L122.933 127.659L125.054 125.538ZM125.054 89.3788L122.933 87.2575L122.054 88.1362V89.3788H125.054ZM125.586 88.8471V85.8471H124.343L123.465 86.7257L125.586 88.8471ZM134.094 88.8471L136.215 86.7257L135.337 85.8471H134.094V88.8471ZM134.626 89.3788H137.626V88.1362L136.747 87.2575L134.626 89.3788ZM134.626 102.672H131.626V103.915L132.504 104.794L134.626 102.672ZM135.157 103.204L133.036 105.326L133.915 106.204H135.157V103.204ZM147.388 103.204V106.204H148.63L149.509 105.326L147.388 103.204ZM147.919 102.672L150.041 104.794L150.919 103.915V102.672H147.919ZM147.919 89.3788L145.798 87.2575L144.919 88.1362V89.3788H147.919ZM148.451 88.8471V85.8471H147.208L146.33 86.7257L148.451 88.8471ZM156.959 88.8471L159.08 86.7257L158.202 85.8471H156.959V88.8471ZM157.491 89.3788H160.491V88.1362L159.612 87.2575L157.491 89.3788ZM157.491 125.538L159.612 127.659L160.491 126.78V125.538H157.491ZM156.959 123.069H148.451V129.069H156.959V123.069ZM150.572 123.948L150.041 123.416L145.798 127.659L146.33 128.191L150.572 123.948ZM150.919 125.538V111.712H144.919V125.538H150.919ZM150.041 109.591L149.509 109.059L145.266 113.302L145.798 113.833L150.041 109.591ZM147.388 108.18H135.157V114.18H147.388V108.18ZM133.036 109.059L132.504 109.591L136.747 113.833L137.279 113.302L133.036 109.059ZM131.626 111.712V125.538H137.626V111.712H131.626ZM132.504 123.416L131.973 123.948L136.215 128.191L136.747 127.659L132.504 123.416ZM134.094 123.069H125.586V129.069H134.094V123.069ZM127.707 123.948L127.176 123.416L122.933 127.659L123.465 128.191L127.707 123.948ZM128.054 125.538V89.3788H122.054V125.538H128.054ZM127.176 91.5001L127.707 90.9684L123.465 86.7257L122.933 87.2575L127.176 91.5001ZM125.586 91.8471H134.094V85.8471H125.586V91.8471ZM131.973 90.9684L132.504 91.5001L136.747 87.2575L136.215 86.7257L131.973 90.9684ZM131.626 89.3788V102.672H137.626V89.3788H131.626ZM132.504 104.794L133.036 105.326L137.279 101.083L136.747 100.551L132.504 104.794ZM135.157 106.204H147.388V100.204H135.157V106.204ZM149.509 105.326L150.041 104.794L145.798 100.551L145.266 101.083L149.509 105.326ZM150.919 102.672V89.3788H144.919V102.672H150.919ZM150.041 91.5001L150.572 90.9684L146.33 86.7257L145.798 87.2575L150.041 91.5001ZM148.451 91.8471H156.959V85.8471H148.451V91.8471ZM154.838 90.9684L155.369 91.5001L159.612 87.2575L159.08 86.7257L154.838 90.9684ZM154.491 89.3788V125.538H160.491V89.3788H154.491ZM155.369 123.416L154.838 123.948L159.08 128.191L159.612 127.659L155.369 123.416ZM185.673 119.688L188.493 118.663L188.084 117.54L187.015 117.005L185.673 119.688ZM184.61 119.157L185.952 116.473L185.318 116.157H184.61V119.157ZM172.38 119.157V116.157H171.672L171.038 116.473L172.38 119.157ZM171.316 119.688L169.975 117.005L168.905 117.54L168.497 118.663L171.316 119.688ZM169.189 125.538L171.311 127.659L171.781 127.188L172.009 126.563L169.189 125.538ZM168.657 126.069V129.069H169.9L170.779 128.191L168.657 126.069ZM162.277 126.069L160.155 128.191L161.034 129.069H162.277V126.069ZM161.745 125.538H158.745V126.78L159.623 127.659L161.745 125.538ZM161.745 118.625L158.959 117.511L158.745 118.047V118.625H161.745ZM173.443 89.3788L171.322 87.2575L170.886 87.6929L170.658 88.2646L173.443 89.3788ZM173.975 88.8471V85.8471H172.732L171.854 86.7257L173.975 88.8471ZM183.015 88.8471L185.136 86.7257L184.257 85.8471H183.015V88.8471ZM183.546 89.3788L186.332 88.2646L186.103 87.6929L185.668 87.2575L183.546 89.3788ZM195.245 118.625H198.245V118.047L198.03 117.511L195.245 118.625ZM195.245 125.538L197.366 127.659L198.245 126.78V125.538H195.245ZM194.713 126.069V129.069H195.956L196.834 128.191L194.713 126.069ZM188.332 126.069L186.211 128.191L187.089 129.069H188.332V126.069ZM187.8 125.538L184.981 126.563L185.208 127.188L185.679 127.659L187.8 125.538ZM174.507 110.649L171.692 109.612L171.028 111.413L172.385 112.77L174.507 110.649ZM175.038 111.18L172.917 113.302L173.796 114.18H175.038V111.18ZM181.951 111.18V114.18H183.194L184.072 113.302L181.951 111.18ZM182.483 110.649L184.604 112.77L185.962 111.413L185.298 109.612L182.483 110.649ZM178.761 100.545L181.576 99.5084L180.853 97.5455H178.761V100.545ZM178.229 100.545V97.5455H176.137L175.414 99.5084L178.229 100.545ZM187.015 117.005L185.952 116.473L183.268 121.84L184.332 122.372L187.015 117.005ZM184.61 116.157H172.38V122.157H184.61V116.157ZM171.038 116.473L169.975 117.005L172.658 122.372L173.721 121.84L171.038 116.473ZM168.497 118.663L166.37 124.512L172.009 126.563L174.136 120.714L168.497 118.663ZM167.068 123.416L166.536 123.948L170.779 128.191L171.311 127.659L167.068 123.416ZM168.657 123.069H162.277V129.069H168.657V123.069ZM164.398 123.948L163.866 123.416L159.623 127.659L160.155 128.191L164.398 123.948ZM164.745 125.538V118.625H158.745V125.538H164.745ZM164.53 119.739L176.229 90.493L170.658 88.2646L158.959 117.511L164.53 119.739ZM175.565 91.5001L176.096 90.9684L171.854 86.7257L171.322 87.2575L175.565 91.5001ZM173.975 91.8471H183.015V85.8471H173.975V91.8471ZM180.893 90.9684L181.425 91.5001L185.668 87.2575L185.136 86.7257L180.893 90.9684ZM180.761 90.493L192.459 119.739L198.03 117.511L186.332 88.2646L180.761 90.493ZM192.245 118.625V125.538H198.245V118.625H192.245ZM193.123 123.416L192.592 123.948L196.834 128.191L197.366 127.659L193.123 123.416ZM194.713 123.069H188.332V129.069H194.713V123.069ZM190.453 123.948L189.922 123.416L185.679 127.659L186.211 128.191L190.453 123.948ZM190.62 124.512L188.493 118.663L182.854 120.714L184.981 126.563L190.62 124.512ZM172.385 112.77L172.917 113.302L177.16 109.059L176.628 108.527L172.385 112.77ZM175.038 114.18H181.951V108.18H175.038V114.18ZM184.072 113.302L184.604 112.77L180.362 108.527L179.83 109.059L184.072 113.302ZM185.298 109.612L181.576 99.5084L175.946 101.583L179.668 111.686L185.298 109.612ZM178.761 97.5455H178.229V103.545H178.761V97.5455ZM175.414 99.5084L171.692 109.612L177.322 111.686L181.044 101.583L175.414 99.5084ZM230.495 120.699L233.208 121.98V121.98L230.495 120.699ZM228.049 123.836L229.903 126.195L229.914 126.186L228.049 123.836ZM200.026 126.069L197.905 128.191L198.784 129.069H200.026V126.069ZM199.495 125.538H196.495V126.78L197.373 127.659L199.495 125.538ZM199.495 89.3788L197.373 87.2575L196.495 88.1362V89.3788H199.495ZM200.026 88.8471V85.8471H198.784L197.905 86.7257L200.026 88.8471ZM223.583 89.3788L224.386 86.4883V86.4883L223.583 89.3788ZM226.986 91.0804L225.132 93.4394L225.179 93.4757L225.226 93.5102L226.986 91.0804ZM229.432 94.005L226.749 95.3467V95.3467L229.432 94.005ZM229.06 103.417L226.471 101.901L226.457 101.925L226.443 101.949L229.06 103.417ZM225.018 106.395L224.202 103.508L222.018 104.126V106.395H225.018ZM225.018 106.926H222.018V109.269L224.291 109.837L225.018 106.926ZM229.804 110.064L227.326 111.754L227.335 111.767L227.344 111.78L229.804 110.064ZM220.605 98.8439L217.653 99.3806L217.677 99.5082L217.711 99.6333L220.605 98.8439ZM220.073 97.8336L217.705 99.6754L217.82 99.8228L217.952 99.9549L220.073 97.8336ZM209.598 96.8233V93.8233H208.355L207.477 94.7019L209.598 96.8233ZM209.066 97.355L206.945 95.2337L206.066 96.1124V97.355H209.066ZM209.066 102.672H206.066V103.915L206.945 104.794L209.066 102.672ZM209.598 103.204L207.477 105.326L208.355 106.204H209.598V103.204ZM218.957 102.938L217.948 100.113L217.948 100.113L218.957 102.938ZM220.073 102.247L217.831 100.254L217.823 100.263L217.815 100.272L220.073 102.247ZM220.605 101.184L217.711 100.394L217.677 100.519L217.653 100.647L220.605 101.184ZM220.818 111.499L218.825 113.742L218.855 113.768L218.885 113.794L220.818 111.499ZM209.598 110.649V107.649H208.355L207.477 108.527L209.598 110.649ZM209.066 111.18L206.945 109.059L206.066 109.938V111.18H209.066ZM209.066 117.561H206.066V118.804L206.945 119.683L209.066 117.561ZM209.598 118.093L207.477 120.214L208.355 121.093H209.598V118.093ZM220.818 117.242L218.885 114.948L218.855 114.973L218.825 115L220.818 117.242ZM228.399 115.966C228.399 117.542 228.144 118.652 227.783 119.418L233.208 121.98C234.052 120.193 234.399 118.148 234.399 115.966H228.399ZM227.783 119.418C227.362 120.309 226.825 120.978 226.185 121.486L229.914 126.186C231.33 125.063 232.424 123.641 233.208 121.98L227.783 119.418ZM226.196 121.477C225.53 122 224.757 122.393 223.843 122.647L225.449 128.428C227.088 127.973 228.583 127.232 229.903 126.195L226.196 121.477ZM223.843 122.647C222.826 122.93 221.802 123.069 220.765 123.069V129.069C222.35 129.069 223.914 128.855 225.449 128.428L223.843 122.647ZM220.765 123.069H200.026V129.069H220.765V123.069ZM202.148 123.948L201.616 123.416L197.373 127.659L197.905 128.191L202.148 123.948ZM202.495 125.538V89.3788H196.495V125.538H202.495ZM201.616 91.5001L202.148 90.9684L197.905 86.7257L197.373 87.2575L201.616 91.5001ZM200.026 91.8471H219.701V85.8471H200.026V91.8471ZM219.701 91.8471C220.739 91.8471 221.763 91.9868 222.78 92.2694L224.386 86.4883C222.851 86.0619 221.287 85.8471 219.701 85.8471V91.8471ZM222.78 92.2694C223.693 92.5231 224.467 92.9163 225.132 93.4394L228.839 88.7214C227.52 87.6847 226.025 86.9435 224.386 86.4883L222.78 92.2694ZM225.226 93.5102C225.839 93.9541 226.348 94.5457 226.749 95.3467L232.115 92.6634C231.31 91.0537 230.189 89.6956 228.745 88.6506L225.226 93.5102ZM226.749 95.3467C227.092 96.0328 227.336 97.017 227.336 98.4185H233.336C233.336 96.3459 232.977 94.3878 232.115 92.6634L226.749 95.3467ZM227.336 98.4185C227.336 99.8277 227.022 100.959 226.471 101.901L231.649 104.932C232.799 102.968 233.336 100.767 233.336 98.4185H227.336ZM226.443 101.949C226.083 102.592 225.458 103.153 224.202 103.508L225.835 109.281C228.337 108.573 230.406 107.149 231.676 104.885L226.443 101.949ZM222.018 106.395V106.926H228.018V106.395H222.018ZM224.291 109.837C225.827 110.221 226.742 110.898 227.326 111.754L232.283 108.374C230.739 106.11 228.464 104.696 225.746 104.016L224.291 109.837ZM227.344 111.78C227.965 112.671 228.399 113.988 228.399 115.966H234.399C234.399 113.123 233.77 110.506 232.265 108.347L227.344 111.78ZM223.765 100.014C223.765 99.3475 223.673 98.6923 223.499 98.0545L217.711 99.6333C217.749 99.7754 217.765 99.9001 217.765 100.014H223.765ZM223.557 98.3073C223.375 97.3093 222.904 96.4218 222.195 95.7123L217.952 99.9549C217.892 99.895 217.823 99.8086 217.764 99.6961C217.705 99.5834 217.67 99.4733 217.653 99.3806L223.557 98.3073ZM222.441 95.9918C221.751 95.1045 220.839 94.5757 219.966 94.2639L217.948 99.9144C218.067 99.957 217.899 99.9246 217.705 99.6754L222.441 95.9918ZM219.966 94.2639C219.03 93.9297 218.017 93.8233 217.042 93.8233V99.8233C217.627 99.8233 217.891 99.8941 217.948 99.9144L219.966 94.2639ZM217.042 93.8233H209.598V99.8233H217.042V93.8233ZM207.477 94.7019L206.945 95.2337L211.187 99.4763L211.719 98.9446L207.477 94.7019ZM206.066 97.355V102.672H212.066V97.355H206.066ZM206.945 104.794L207.477 105.326L211.719 101.083L211.187 100.551L206.945 104.794ZM209.598 106.204H217.042V100.204H209.598V106.204ZM217.042 106.204C218.017 106.204 219.03 106.098 219.966 105.764L217.948 100.113C217.891 100.133 217.627 100.204 217.042 100.204V106.204ZM219.966 105.764C220.762 105.479 221.638 105.014 222.331 104.223L217.815 100.272C217.917 100.156 218.001 100.099 218.029 100.082C218.055 100.066 218.035 100.082 217.948 100.113L219.966 105.764ZM222.315 104.24C222.935 103.543 223.38 102.693 223.557 101.72L217.653 100.647C217.669 100.562 217.697 100.477 217.736 100.4C217.773 100.325 217.811 100.276 217.831 100.254L222.315 104.24ZM223.499 101.973C223.673 101.335 223.765 100.68 223.765 100.014H217.765C217.765 100.127 217.749 100.252 217.711 100.394L223.499 101.973ZM224.828 114.371C224.828 112.611 224.394 110.589 222.75 109.205L218.885 113.794C218.753 113.683 218.727 113.587 218.745 113.638C218.771 113.712 218.828 113.932 218.828 114.371H224.828ZM222.811 109.257C221.967 108.507 220.946 108.136 220.055 107.935C219.135 107.728 218.113 107.649 217.042 107.649V113.649C217.851 113.649 218.397 113.712 218.736 113.788C219.102 113.871 219.03 113.925 218.825 113.742L222.811 109.257ZM217.042 107.649H209.598V113.649H217.042V107.649ZM207.477 108.527L206.945 109.059L211.187 113.302L211.719 112.77L207.477 108.527ZM206.066 111.18V117.561H212.066V111.18H206.066ZM206.945 119.683L207.477 120.214L211.719 115.972L211.187 115.44L206.945 119.683ZM209.598 121.093H217.042V115.093H209.598V121.093ZM217.042 121.093C218.113 121.093 219.135 121.014 220.055 120.807C220.946 120.606 221.967 120.235 222.811 119.485L218.825 115C219.03 114.817 219.102 114.871 218.736 114.954C218.397 115.03 217.851 115.093 217.042 115.093V121.093ZM222.75 119.537C224.394 118.153 224.828 116.13 224.828 114.371H218.828C218.828 114.81 218.771 115.03 218.745 115.103C218.727 115.155 218.753 115.059 218.885 114.948L222.75 119.537ZM245.235 126.069V129.069H246.478L247.357 128.191L245.235 126.069ZM236.727 126.069L234.606 128.191L235.485 129.069H236.727V126.069ZM236.196 125.538H233.196V126.78L234.074 127.659L236.196 125.538ZM236.196 89.3788L234.074 87.2575L233.196 88.1362V89.3788H236.196ZM236.727 88.8471V85.8471H235.485L234.606 86.7257L236.727 88.8471ZM245.235 88.8471L247.357 86.7257L246.478 85.8471H245.235V88.8471ZM245.767 89.3788H248.767V88.1362L247.888 87.2575L245.767 89.3788ZM245.767 125.538L247.888 127.659L248.767 126.78V125.538H245.767ZM245.235 123.069H236.727V129.069H245.235V123.069ZM238.849 123.948L238.317 123.416L234.074 127.659L234.606 128.191L238.849 123.948ZM239.196 125.538V89.3788H233.196V125.538H239.196ZM238.317 91.5001L238.849 90.9684L234.606 86.7257L234.074 87.2575L238.317 91.5001ZM236.727 91.8471H245.235V85.8471H236.727V91.8471ZM243.114 90.9684L243.646 91.5001L247.888 87.2575L247.357 86.7257L243.114 90.9684ZM242.767 89.3788V125.538H248.767V89.3788H242.767ZM243.646 123.416L243.114 123.948L247.357 128.191L247.888 127.659L243.646 123.416ZM282.474 96.8233V99.8233H283.717L284.595 98.9446L282.474 96.8233ZM271.839 96.8233V93.8233H270.597L269.718 94.702L271.839 96.8233ZM271.307 97.355L269.186 95.2337L268.307 96.1124V97.355H271.307ZM271.307 125.538L273.429 127.659L274.307 126.78V125.538H271.307ZM270.776 126.069V129.069H272.018L272.897 128.191L270.776 126.069ZM262.268 126.069L260.146 128.191L261.025 129.069H262.268V126.069ZM261.736 125.538H258.736V126.78L259.615 127.659L261.736 125.538ZM261.736 97.355H264.736V96.1124L263.857 95.2337L261.736 97.355ZM261.204 96.8233L263.326 94.7019L262.447 93.8233H261.204V96.8233ZM250.569 96.8233L248.448 98.9446L249.327 99.8233H250.569V96.8233ZM250.038 96.2915H247.038V97.5342L247.916 98.4128L250.038 96.2915ZM250.038 89.3788L247.916 87.2575L247.038 88.1362V89.3788H250.038ZM250.569 88.8471V85.8471H249.327L248.448 86.7257L250.569 88.8471ZM282.474 88.8471L284.595 86.7257L283.717 85.8471H282.474V88.8471ZM283.006 89.3788H286.006V88.1362L285.127 87.2575L283.006 89.3788ZM283.006 96.2915L285.127 98.4128L286.006 97.5342V96.2915H283.006ZM282.474 93.8233H271.839V99.8233H282.474V93.8233ZM269.718 94.702L269.186 95.2337L273.429 99.4763L273.96 98.9446L269.718 94.702ZM268.307 97.355V125.538H274.307V97.355H268.307ZM269.186 123.416L268.654 123.948L272.897 128.191L273.429 127.659L269.186 123.416ZM270.776 123.069H262.268V129.069H270.776V123.069ZM264.389 123.948L263.857 123.416L259.615 127.659L260.146 128.191L264.389 123.948ZM264.736 125.538V97.355H258.736V125.538H264.736ZM263.857 95.2337L263.326 94.7019L259.083 98.9446L259.615 99.4763L263.857 95.2337ZM261.204 93.8233H250.569V99.8233H261.204V93.8233ZM252.691 94.7019L252.159 94.1702L247.916 98.4128L248.448 98.9446L252.691 94.7019ZM253.038 96.2915V89.3788H247.038V96.2915H253.038ZM252.159 91.5001L252.691 90.9684L248.448 86.7257L247.916 87.2575L252.159 91.5001ZM250.569 91.8471H282.474V85.8471H250.569V91.8471ZM280.353 90.9684L280.885 91.5001L285.127 87.2575L284.595 86.7257L280.353 90.9684ZM280.006 89.3788V96.2915H286.006V89.3788H280.006ZM280.885 94.1702L280.353 94.702L284.595 98.9446L285.127 98.4128L280.885 94.1702ZM307.593 113.839L305.002 115.351L305.078 115.481L305.167 115.604L307.593 113.839ZM306.477 112.829L304.988 115.434L305.061 115.475L305.135 115.512L306.477 112.829ZM304.616 112.191L303.888 115.101L303.971 115.122L304.054 115.138L304.616 112.191ZM302.17 111.712L302.626 108.747L302.61 108.745L302.594 108.742L302.17 111.712ZM298.447 111.18L298.872 108.211L298.861 108.209L298.447 111.18ZM291.641 109.372L290.321 112.067L290.344 112.078L290.366 112.088L291.641 109.372ZM287.6 106.448L285.337 108.418L287.6 106.448ZM285.632 102.885L282.722 103.613L282.731 103.651L282.742 103.688L285.632 102.885ZM286.058 94.8558L288.77 96.1368L288.777 96.1226L288.784 96.1083L286.058 94.8558ZM293.662 89.1661L292.824 86.2855L292.816 86.2876L292.809 86.2897L293.662 89.1661ZM311.847 91.1336L310.146 93.6048L310.165 93.6174L310.183 93.6297L311.847 91.1336ZM315.995 99.482L318.116 101.603L318.995 100.725V99.482H315.995ZM315.463 100.014V103.014H316.706L317.584 102.135L315.463 100.014ZM306.955 100.014L304.834 102.135L305.713 103.014H306.955V100.014ZM306.423 99.482H303.423V100.725L304.302 101.603L306.423 99.482ZM305.094 96.8233L303.22 99.1659V99.1659L305.094 96.8233ZM295.682 101.13L294.585 103.923L294.602 103.929L294.618 103.935L295.682 101.13ZM300.043 102.141L299.595 105.107L299.607 105.109L299.618 105.111L300.043 102.141ZM303.765 102.672L303.34 105.642L303.351 105.644L303.765 102.672ZM310.571 104.427L309.342 107.164L310.571 104.427ZM316.527 110.755L313.612 111.464L313.621 111.501L313.631 111.538L316.527 110.755ZM316.208 119.21L318.983 120.348L318.988 120.336L318.993 120.324L316.208 119.21ZM313.443 122.932L311.485 120.659L311.469 120.672L311.453 120.686L313.443 122.932ZM308.497 125.591L307.563 122.74L307.556 122.742L307.549 122.745L308.497 125.591ZM288.823 123.517L287.028 125.921L287.045 125.933L287.062 125.946L288.823 123.517ZM284.622 114.371L282.501 112.25L281.622 113.128V114.371H284.622ZM285.154 113.839V110.839H283.911L283.032 111.718L285.154 113.839ZM293.662 113.839L295.783 111.718L294.904 110.839H293.662V113.839ZM294.193 114.371H297.193V113.128L296.315 112.25L294.193 114.371ZM295.842 117.987L294.054 120.396L294.08 120.415L294.105 120.433L295.842 117.987ZM306.158 118.306L304.91 115.577L306.158 118.306ZM311.019 115.434C311.019 114.372 310.798 113.145 310.02 112.075L305.167 115.604C305.063 115.461 305.025 115.344 305.014 115.303C305.004 115.268 305.019 115.303 305.019 115.434H311.019ZM310.185 112.328C309.606 111.336 308.768 110.62 307.818 110.146L305.135 115.512C305.165 115.527 305.151 115.524 305.115 115.492C305.078 115.458 305.036 115.409 305.002 115.351L310.185 112.328ZM307.965 110.224C307.104 109.732 306.147 109.429 305.177 109.244L304.054 115.138C304.573 115.236 304.856 115.358 304.988 115.434L307.965 110.224ZM305.343 109.28C304.524 109.076 303.615 108.899 302.626 108.747L301.713 114.677C302.567 114.809 303.289 114.951 303.888 115.101L305.343 109.28ZM302.594 108.742L298.872 108.211L298.023 114.15L301.745 114.682L302.594 108.742ZM298.861 108.209C296.231 107.843 294.284 107.299 292.916 106.657L290.366 112.088C292.472 113.077 295.062 113.738 298.034 114.152L298.861 108.209ZM292.961 106.678C291.471 105.949 290.485 105.193 289.862 104.478L285.337 108.418C286.628 109.9 288.336 111.094 290.321 112.067L292.961 106.678ZM289.862 104.478C289.169 103.682 288.746 102.886 288.523 102.082L282.742 103.688C283.227 105.437 284.116 107.016 285.337 108.418L289.862 104.478ZM288.543 102.158C288.284 101.125 288.154 100.058 288.154 98.9503H282.154C282.154 100.537 282.342 102.093 282.722 103.613L288.543 102.158ZM288.154 98.9503C288.154 97.9262 288.363 97.0003 288.77 96.1368L283.345 93.5748C282.547 95.2637 282.154 97.0674 282.154 98.9503H288.154ZM288.784 96.1083C289.157 95.2965 289.756 94.5424 290.676 93.8526L287.076 89.0526C285.443 90.2771 284.164 91.7918 283.332 93.6033L288.784 96.1083ZM290.676 93.8526C291.605 93.1555 292.859 92.5329 294.514 92.0425L292.809 86.2897C290.636 86.9337 288.699 87.8355 287.076 89.0526L290.676 93.8526ZM294.5 92.0467C296.108 91.5788 298.117 91.3153 300.574 91.3153V85.3153C297.714 85.3153 295.115 85.619 292.824 86.2855L294.5 92.0467ZM300.574 91.3153C305.01 91.3153 308.094 92.1922 310.146 93.6048L313.548 88.6624C310.141 86.3173 305.71 85.3153 300.574 85.3153V91.3153ZM310.183 93.6297C312.003 94.8426 312.995 96.6215 312.995 99.482H318.995C318.995 94.8981 317.222 91.1113 313.511 88.6374L310.183 93.6297ZM313.874 97.3607L313.342 97.8924L317.584 102.135L318.116 101.603L313.874 97.3607ZM315.463 97.0138H306.955V103.014H315.463V97.0138ZM309.077 97.8924L308.545 97.3607L304.302 101.603L304.834 102.135L309.077 97.8924ZM309.423 99.482C309.423 97.439 308.511 95.715 306.968 94.4807L303.22 99.1659C303.373 99.2886 303.407 99.3592 303.408 99.3613C303.41 99.3659 303.412 99.3711 303.415 99.3825C303.418 99.3947 303.423 99.4257 303.423 99.482H309.423ZM306.968 94.4807C305.252 93.1078 302.865 92.7598 300.574 92.7598V98.7598C301.486 98.7598 302.15 98.8372 302.612 98.9459C303.081 99.0562 303.227 99.1717 303.22 99.1659L306.968 94.4807ZM300.574 92.7598C298.294 92.7598 296.137 93.0289 294.447 93.8741C293.559 94.3179 292.713 94.9643 292.096 95.8903C291.466 96.8351 291.193 97.8936 291.193 98.9503H297.193C297.193 98.9435 297.186 99.0713 297.088 99.2185C297.003 99.3469 296.954 99.3286 297.13 99.2407C297.567 99.0224 298.601 98.7598 300.574 98.7598V92.7598ZM291.193 98.9503C291.193 99.9579 291.434 101.027 292.088 101.985C292.742 102.942 293.649 103.555 294.585 103.923L296.779 98.3382C296.723 98.316 296.885 98.3705 297.043 98.601C297.201 98.8322 297.193 99.0061 297.193 98.9503H291.193ZM294.618 103.935C295.938 104.436 297.634 104.811 299.595 105.107L300.49 99.1743C298.694 98.9031 297.482 98.6046 296.746 98.3254L294.618 103.935ZM299.618 105.111L303.34 105.642L304.189 99.7026L300.467 99.1709L299.618 105.111ZM303.351 105.644C305.992 106.012 307.957 106.542 309.342 107.164L311.8 101.69C309.711 100.753 307.138 100.113 304.178 99.7011L303.351 105.644ZM309.342 107.164C310.818 107.827 311.781 108.531 312.382 109.199L316.842 105.185C315.53 103.727 313.798 102.588 311.8 101.69L309.342 107.164ZM312.382 109.199C313.028 109.916 313.417 110.664 313.612 111.464L319.442 110.046C318.998 108.223 318.111 106.595 316.842 105.185L312.382 109.199ZM313.631 111.538C313.911 112.577 314.058 113.695 314.058 114.903H320.058C320.058 113.203 319.851 111.556 319.423 109.972L313.631 111.538ZM314.058 114.903C314.058 115.955 313.855 117.014 313.422 118.096L318.993 120.324C319.695 118.57 320.058 116.757 320.058 114.903H314.058ZM313.432 118.071C313.066 118.963 312.449 119.829 311.485 120.659L315.4 125.205C316.989 123.837 318.215 122.221 318.983 120.348L313.432 118.071ZM311.453 120.686C310.598 121.444 309.344 122.157 307.563 122.74L309.431 128.442C311.763 127.678 313.806 126.618 315.432 125.178L311.453 120.686ZM307.549 122.745C305.923 123.287 303.8 123.601 301.106 123.601V129.601C304.226 129.601 307.031 129.242 309.446 128.437L307.549 122.745ZM301.106 123.601C296.072 123.601 292.701 122.623 290.584 121.088L287.062 125.946C290.616 128.523 295.435 129.601 301.106 129.601V123.601ZM290.618 121.113C288.694 119.676 287.622 117.588 287.622 114.371H281.622C281.622 119.165 283.351 123.175 287.028 125.921L290.618 121.113ZM286.743 116.492L287.275 115.96L283.032 111.718L282.501 112.25L286.743 116.492ZM285.154 116.839H293.662V110.839H285.154V116.839ZM291.54 115.96L292.072 116.492L296.315 112.25L295.783 111.718L291.54 115.96ZM291.193 114.371C291.193 116.737 292.059 118.916 294.054 120.396L297.629 115.577C297.426 115.427 297.193 115.195 297.193 114.371H291.193ZM294.105 120.433C295.976 121.761 298.504 122.157 301.106 122.157V116.157C298.887 116.157 297.905 115.773 297.578 115.54L294.105 120.433ZM301.106 122.157C303.448 122.157 305.615 121.852 307.405 121.034L304.91 115.577C304.219 115.894 303.018 116.157 301.106 116.157V122.157ZM307.405 121.034C308.441 120.56 309.394 119.839 310.071 118.794C310.749 117.747 311.019 116.58 311.019 115.434H305.019C305.019 115.541 305.006 115.588 305.006 115.592C305.006 115.592 305.013 115.566 305.036 115.531C305.059 115.496 305.077 115.482 305.071 115.486C305.062 115.493 305.017 115.529 304.91 115.577L307.405 121.034Z" fill="#ED274B"/>
</svg>
